<svg xmlns="http://www.w3.org/2000/svg" xmlns:xlink="http://www.w3.org/1999/xlink" viewBox="0 0 60 75" version="1.1" x="0px" y="0px"><title>018 - Script</title><desc>Created with Sketch.</desc><g stroke="none" stroke-width="1" fill="none" fill-rule="evenodd" stroke-linecap="round" stroke-linejoin="round"><g transform="translate(1.000000, 1.000000)" stroke="#000000" stroke-width="2"><path d="M0,6.00000009 C4.93781043e-08,2.68629158 2.68629154,8.94069661e-08 6,8.94069663e-08 C9.31370846,8.94069665e-08 12,2.68629158 12,6.00000009 L0,6.00000009 Z"/><path d="M54,6 C53.9973806,2.68737709 51.3126229,0.00261938385 48,4.4408921e-16"/><path d="M12,52 L12,6"/><polyline points="24 52 54 52 54 6"/><path d="M6,0 L48,0"/><path d="M52,58 C55.3126229,57.9973806 57.9973806,55.3126229 58,52 L46,52"/><path d="M12,52 C12.0000001,55.3137085 14.6862916,58 18,58 C21.3137084,58 23.9999999,55.3137085 24,52"/><path d="M52,58 L18,58"/><g transform="translate(21.000000, 16.000000)"><g><g><path d="M23.1779999,9.69230996 L20.8467699,9.69230996 C20.2979523,9.69227445 19.8031883,9.36166468 19.5931591,8.85462564 C19.3831299,8.34758659 19.4991912,7.76395661 19.88723,7.37584997 L21.5358399,5.72769998 C21.6900954,5.57357078 21.7767659,5.36445091 21.7767659,5.14638998 C21.7767659,4.92832905 21.6900954,4.71920918 21.5358399,4.56507998 L19.43446,2.46415999 C19.2804215,2.3099134 19.0713755,2.22324105 18.853385,2.22324105 C18.6353944,2.22324105 18.4263485,2.3099134 18.27231,2.46415999 L16.6237,4.11230998 C16.2357656,4.50041198 15.6522258,4.61657748 15.1452371,4.40662815 C14.6382485,4.19667881 14.3076779,3.70197055 14.3077,3.15322999 L14.3077,0.821539997 C14.3076628,0.603583982 14.2210315,0.394572405 14.0668693,0.240498306 C13.9127071,0.0864242064 13.703646,-8.75378285e-05 13.48569,-2.12472309e-15 L10.51431,-2.12472309e-15 C10.2963557,-8.48845879e-05 10.0872972,0.0864280311 9.9331371,0.240501843 C9.77897702,0.394575654 9.6923471,0.603585715 9.69230998,0.821539997 L9.69230998,3.15322999 C9.69233202,3.70197055 9.36176144,4.19667881 8.8547728,4.40662815 C8.34778416,4.61657748 7.76424431,4.50041198 7.37630998,4.11230998 L5.72768999,2.46415999 C5.57365279,2.30991094 5.36460633,2.22323689 5.14661499,2.22323689 C4.92862364,2.22323689 4.71957718,2.30991094 4.56553999,2.46415999 L2.46415999,4.56507998 C2.3099045,4.71920918 2.22323403,4.92832905 2.22323403,5.14638998 C2.22323403,5.36445091 2.3099045,5.57357078 2.46415999,5.72769998 L4.11277999,7.37584997 C4.50081877,7.76395661 4.61688002,8.34758659 4.40685082,8.85462564 C4.19682162,9.36166468 3.70205768,9.69227445 3.15323999,9.69230996 L0.821999998,9.69230996 C0.60404573,9.69222508 0.394987209,9.77873799 0.240827127,9.9328118 C0.0866670454,10.0868856 3.71190948e-05,10.2958957 1.12041865e-15,10.51385 L1.12041865e-15,13.4856999 C-5.83758546e-05,13.7037258 0.0865262005,13.9128386 0.240693759,14.0670062 C0.394861318,14.2211737 0.603974153,14.3077583 0.821999998,14.3076999 L3.15322999,14.3076999 C3.7019926,14.3076188 4.19676264,14.6381315 4.40680637,15.1451049 C4.61685009,15.6520783 4.50079782,16.2356602 4.11276999,16.6236999 L2.46414999,18.2723099 C2.3099034,18.4263484 2.22323105,18.6353944 2.22323105,18.8533849 C2.22323105,19.0713755 2.3099034,19.2804214 2.46414999,19.4344599 L4.56552999,21.5358399 C4.71956849,21.6900865 4.92861446,21.7767589 5.14660499,21.7767589 C5.36459552,21.7767589 5.57364149,21.6900865 5.72767999,21.5358399 L7.37629998,19.8872299 C7.76433969,19.4992021 8.34792163,19.3831498 8.85489504,19.5931935 C9.36186846,19.8032373 9.69238112,20.2980073 9.69229998,20.8467699 L9.69229998,23.1779999 C9.6922416,23.3960258 9.77882618,23.6051386 9.93299374,23.7593061 C10.0871613,23.9134737 10.2962741,24.0000583 10.5143,23.9999999 L13.48568,23.9999999 C13.7037058,24.0000583 13.9128186,23.9134737 14.0669862,23.7593061 C14.2211538,23.6051386 14.3077383,23.3960258 14.30768,23.1779999 L14.30768,20.8467699 C14.3075988,20.2980073 14.6381115,19.8032373 15.1450849,19.5931935 C15.6520583,19.3831498 16.2356403,19.4992021 16.62368,19.8872299 L18.27229,21.5358399 C18.4263285,21.6900865 18.6353744,21.7767589 18.853365,21.7767589 C19.0713555,21.7767589 19.2804015,21.6900865 19.43444,21.5358399 L21.5358199,19.4344599 C21.6900665,19.2804214 21.7767389,19.0713755 21.7767389,18.8533849 C21.7767389,18.6353944 21.6900665,18.4263484 21.5358199,18.2723099 L19.88721,16.6236999 C19.4991821,16.2356602 19.3831299,15.6520783 19.5931736,15.1451049 C19.8032173,14.6381315 20.2979873,14.3076188 20.8467499,14.3076999 L23.1779999,14.3076999 C23.3960258,14.3077583 23.6051386,14.2211737 23.7593062,14.0670062 C23.9134737,13.9128386 24.0000583,13.7037258 23.9999999,13.4856999 L23.9999999,10.51385 C23.9999628,10.2958957 23.9133329,10.0868856 23.7591728,9.9328118 C23.6050127,9.77873799 23.3959542,9.69222508 23.1779999,9.69230996 Z"/><path d="M15.69231,12 C15.69231,13.4934 14.7927075,14.8397502 13.4129859,15.4112496 C12.0332642,15.9827491 10.4451358,15.6668507 9.38914256,14.6108574 C8.3331493,13.5548642 8.01725093,11.9667358 8.58875036,10.5870141 C9.1602498,9.20729245 10.5066,8.30769 12,8.30769 C14.0391699,8.30777836 15.6922216,9.9608301 15.69231,12 Z"/></g></g></g></g></g><text x="0" y="75" fill="#000000" font-size="5px" font-weight="bold" font-family="'Helvetica Neue', Helvetica, Arial-Unicode, Arial, Sans-serif">Created by Creaticca Creative Agency</text><text x="0" y="80" fill="#000000" font-size="5px" font-weight="bold" font-family="'Helvetica Neue', Helvetica, Arial-Unicode, Arial, Sans-serif">from the Noun Project</text></svg>